<?xml version="1.0" encoding="UTF-8"?>
<svg id="Layer_1" data-name="Layer 1" xmlns="http://www.w3.org/2000/svg" viewBox="0 0 40.03 39.12">
  <defs>
    <style>
      .cls-1 {
        fill: #fff;
      }

      .cls-2 {
        fill: #3c3c3c;
      }
    </style>
  </defs>
  <g>
    <path class="cls-2" d="m12.31,23.04h-6.87v-6.87h6.87v6.87Zm-5.1-1.76h3.34v-3.34h-3.34v3.34Z"/>
    <path class="cls-2" d="m23.31,23.04h-6.87v-6.87h6.87v6.87Zm-5.1-1.76h3.34v-3.34h-3.34v3.34Z"/>
    <path class="cls-2" d="m34.31,23.04h-6.87v-6.87h6.87v6.87Zm-5.1-1.76h3.34v-3.34h-3.34v3.34Z"/>
  </g>
  <g>
    <path class="cls-2" d="m12.31,33.04h-6.87v-6.87h6.87v6.87Zm-5.1-1.76h3.34v-3.34h-3.34v3.34Z"/>
    <path class="cls-2" d="m23.31,33.04h-6.87v-6.87h6.87v6.87Zm-5.1-1.76h3.34v-3.34h-3.34v3.34Z"/>
    <path class="cls-2" d="m34.31,33.04h-6.87v-6.87h6.87v6.87Zm-5.1-1.76h3.34v-3.34h-3.34v3.34Z"/>
  </g>
  <path class="cls-2" d="m37.24,39.12H2.79c-1.54,0-2.79-1.24-2.79-2.77V6.1c0-1.53,1.25-2.77,2.79-2.77h34.45c1.54,0,2.79,1.24,2.79,2.77v30.25c0,1.53-1.25,2.77-2.79,2.77ZM2.79,4.84c-.7,0-1.27.57-1.27,1.26v30.25c0,.7.57,1.26,1.27,1.26h34.45c.7,0,1.27-.57,1.27-1.26V6.1c0-.7-.57-1.26-1.27-1.26H2.79Z"/>
  <g>
    <path class="cls-2" d="m11.78,9.12c-.55,0-1-.45-1-1V1.12c0-.55.45-1,1-1s1,.45,1,1v7c0,.55-.45,1-1,1Z"/>
    <path class="cls-1" d="m11.78,9.25c-.62,0-1.12-.5-1.12-1.12V1.12c0-.62.5-1.12,1.12-1.12s1.12.5,1.12,1.12v7c0,.62-.5,1.12-1.12,1.12ZM11.78.25c-.48,0-.88.39-.88.88v7c0,.48.39.88.88.88s.88-.39.88-.88V1.12c0-.48-.39-.88-.88-.88Z"/>
  </g>
  <g>
    <path class="cls-2" d="m27.78,9.12c-.55,0-1-.45-1-1V1.12c0-.55.45-1,1-1s1,.45,1,1v7c0,.55-.45,1-1,1Z"/>
    <path class="cls-1" d="m27.78,9.25c-.62,0-1.12-.5-1.12-1.12V1.12c0-.62.5-1.12,1.12-1.12s1.12.5,1.12,1.12v7c0,.62-.5,1.12-1.12,1.12Zm0-9c-.48,0-.88.39-.88.88v7c0,.48.39.88.88.88s.88-.39.88-.88V1.12c0-.48-.39-.88-.88-.88Z"/>
  </g>
</svg>