<?xml version="1.0" encoding="utf-8"?>
<!-- Generator: Adobe Illustrator 27.6.1, SVG Export Plug-In . SVG Version: 6.00 Build 0)  -->
<svg version="1.1" id="Layer_1" xmlns="http://www.w3.org/2000/svg" xmlns:xlink="http://www.w3.org/1999/xlink" x="0px" y="0px"
	 viewBox="0 0 16 16" style="enable-background:new 0 0 16 16;" xml:space="preserve">
<style type="text/css">
	.st0{fill:#3C3C3C;}
</style>
<g>
	<path class="st0" d="M8.03,0c-4.4,0-7.97,3.58-7.97,7.97s3.58,7.97,7.97,7.97c4.4,0,7.97-3.58,7.97-7.97S12.42,0,8.03,0z
		 M8.03,14.39c-3.54,0-6.41-2.88-6.41-6.41s2.88-6.41,6.41-6.41c3.54,0,6.41,2.88,6.41,6.41S11.56,14.39,8.03,14.39z"/>
	<path class="st0" d="M9.06,7.78L11.6,5.2c0.3-0.31,0.3-0.8-0.01-1.1c-0.31-0.3-0.8-0.3-1.1,0.01L7.96,6.67L5.44,4.1
		c-0.3-0.31-0.79-0.31-1.1-0.01c-0.31,0.3-0.31,0.8-0.01,1.1l2.54,2.58L4.2,10.49c-0.3,0.31-0.3,0.8,0.01,1.1
		c0.15,0.15,0.35,0.22,0.55,0.22c0.2,0,0.4-0.08,0.56-0.23l2.65-2.7l2.65,2.7c0.15,0.16,0.35,0.23,0.56,0.23
		c0.2,0,0.39-0.07,0.55-0.22c0.31-0.3,0.31-0.8,0.01-1.1L9.06,7.78z"/>
</g>
</svg>
