<?xml version="1.0" encoding="UTF-8"?>
<svg id="Layer_1" data-name="Layer 1" xmlns="http://www.w3.org/2000/svg" viewBox="0 0 40 40">
  <defs>
    <style>
      .cls-1, .cls-2 {
        fill: #3c3c3c;
      }

      .cls-2 {
        opacity: 0;
      }
    </style>
  </defs>
  <rect class="cls-2" width="40" height="40"/>
  <path class="cls-1" d="m21.75,3.01c.42.18.88.27,1.26.55.96.7,1.44,1.64,1.41,2.83-.01.57,0,.58.54.77.49.18.98.36,1.44.62.18.09.28.06.41-.08.54-.6,1.15-1.06,1.96-1.22,1.05-.2,2,.04,2.79.75.64.58,1.25,1.19,1.83,1.83,1.12,1.24,1.1,3.16-.12,4.36-.42.42-.57.74-.22,1.27.22.34.34.77.47,1.17.08.26.2.36.48.34.82-.06,1.58.09,2.26.6.86.63,1.31,1.5,1.34,2.56.02.76,0,1.53,0,2.29-.01,1.72-1.4,3.12-3.11,3.17-.27,0-.6-.07-.81.05-.22.12-.2.48-.32.72-.18.39-.32.78-.51,1.15-.11.21-.09.34.08.49.56.49.99,1.06,1.17,1.81.25,1.12,0,2.13-.77,2.97-.55.6-1.12,1.17-1.72,1.72-1.26,1.18-3.19,1.15-4.44-.05-.55-.53-.55-.51-1.25-.21-.41.18-.82.34-1.24.48-.22.07-.28.19-.27.4.06.83-.08,1.61-.58,2.29-.63.86-1.48,1.32-2.55,1.36-.77.02-1.55.01-2.33,0-1.73-.02-3.13-1.43-3.16-3.16q-.01-.78-.75-1.06c-.41-.16-.82-.33-1.22-.53-.2-.09-.3-.07-.43.08-.51.56-1.1,1.03-1.87,1.19-1.1.23-2.08,0-2.91-.77-.62-.57-1.22-1.17-1.79-1.79-1.15-1.26-1.09-3.12.07-4.36.19-.2.5-.35.53-.6.01-.22-.2-.47-.3-.71-.15-.35-.3-.71-.42-1.08-.09-.29-.22-.42-.55-.4-.79.07-1.53-.11-2.2-.57-.68-.48-1.1-1.13-1.29-1.94-.01-.07.01-.16-.08-.21v-3.21c.09-.07.09-.19.12-.28.27-1.03.92-1.73,1.87-2.16.5-.22,1.03-.27,1.57-.23.29.02.44-.06.53-.36.12-.4.25-.82.47-1.16.34-.54.19-.85-.23-1.27-1.19-1.18-1.24-3.1-.13-4.32.6-.67,1.24-1.3,1.9-1.9.76-.68,1.68-.89,2.7-.71.81.14,1.41.58,1.95,1.16.18.19.29.23.54.11.47-.23.95-.47,1.44-.61.39-.12.49-.29.47-.67-.07-1.06.3-1.95,1.1-2.68.46-.41,1-.6,1.57-.78h3.3Zm-1.65,32.94h1.1c.67,0,1.16-.5,1.17-1.17v-1.33c0-.69.23-1.03.9-1.22,1.03-.29,2.01-.7,2.94-1.23.54-.3.95-.25,1.38.2.33.33.65.67.99.99.51.48,1.18.47,1.68-.02s1-.99,1.5-1.5c.5-.51.5-1.18,0-1.71-.33-.35-.68-.68-1-1.02-.4-.41-.46-.81-.18-1.3.55-.97.98-1.99,1.27-3.07.15-.55.53-.81,1.11-.81h1.4c.67,0,1.16-.49,1.17-1.17v-2.19c0-.67-.5-1.16-1.17-1.17h-1.3c-.74,0-1.06-.23-1.26-.95-.28-1.02-.68-1.97-1.2-2.89-.32-.56-.27-.96.19-1.41.33-.34.67-.65.99-.99.48-.51.47-1.18-.02-1.68-.49-.5-.99-1-1.5-1.5-.51-.5-1.19-.5-1.71,0-.32.3-.63.63-.95.95-.48.47-.86.54-1.44.21-.95-.54-1.94-.93-2.98-1.23-.57-.16-.84-.51-.84-1.12v-1.37c0-.71-.49-1.19-1.2-1.2h-2.12c-.7,0-1.19.51-1.2,1.22v1.4c0,.55-.28.92-.82,1.08-1.05.29-2.06.7-3.01,1.25-.55.32-.96.25-1.41-.2-.32-.32-.62-.63-.95-.93-.55-.53-1.2-.53-1.75.01-.48.47-.96.95-1.43,1.43-.55.56-.55,1.22,0,1.78.32.33.65.64.96.97.4.41.47.82.19,1.31-.55.98-.99,2.01-1.29,3.11-.14.51-.53.78-1.06.79h-1.4c-.71,0-1.22.49-1.22,1.19v2.15c0,.68.51,1.17,1.19,1.18h1.37c.61,0,.96.26,1.12.84.29,1.05.71,2.06,1.25,3,.3.55.25.95-.19,1.39-.32.33-.64.64-.97.97-.51.54-.5,1.2.01,1.73.48.49.97.97,1.45,1.45.54.54,1.22.54,1.75.01.34-.33.65-.67.99-.99.4-.39.79-.46,1.27-.2,1,.56,2.06,1,3.17,1.31.5.14.75.53.76,1.05v1.44c0,.67.49,1.17,1.16,1.18h1.1l.02-.04Z"/>
  <path class="cls-1" d="m12.5,20.47c.01-4.2,3.44-7.6,7.63-7.57,4.23.02,7.62,3.42,7.6,7.64-.02,4.2-3.41,7.57-7.62,7.56-4.22,0-7.62-3.42-7.61-7.64h0Zm7.61,5.59c3.06.04,5.57-2.51,5.56-5.53,0-3.1-2.47-5.56-5.56-5.57-3.08,0-5.56,2.49-5.55,5.59.01,3.05,2.49,5.52,5.54,5.52h.01Z"/>
</svg>