<?xml version="1.0" encoding="UTF-8"?>
<svg id="Layer_2" data-name="Layer 2" xmlns="http://www.w3.org/2000/svg" viewBox="0 0 48 48.16">
  <defs>
    <style>
      .cls-1 {
        fill: rgba(60, 60, 60, 0);
      }

      .cls-2 {
        fill: #444;
      }
    </style>
  </defs>
  <path class="cls-1" d="m48,48.16H0V0h48v48.16Zm-45.99-2.02h43.98V2.02H2.01s0,44.12,0,44.12Z"/>
  <g id="FP6q0I.tif">
    <path class="cls-2" d="m23.97,41.35h-11.91c-1.09,0-2.07-.33-2.87-1.11-.71-.7-1.11-1.54-1.11-2.54,0-4.34,0-8.68-.02-13.03,0-1.35,0-2.7,0-4.05,0-.44.15-.75.5-1.04,1.01-.82,1.99-1.67,2.98-2.5.05-.04.11-.06.17-.09.43-.28.67-.61.64-1.2-.06-1.31,0-2.62-.03-3.93-.02-.7.15-1.03,1.06-1.05,1.77-.03,3.54-.02,5.3,0,.35,0,.64-.1.86-.31.64-.62,1.33-1.18,2.04-1.7,1.09-.81,2.3-1.15,3.66-.63.8.31,1.43.86,2.07,1.39.37.31.74.62,1.1.93.24.21.5.32.85.31,1.76-.02,3.51,0,5.27,0,.41,0,.8.06,1,.5.07.15.07.3.07.46v4.09c0,.39.05.68.45.93.55.34,1.01.83,1.51,1.26.66.56,1.33,1.1,1.99,1.67.23.2.39.44.39.8-.01,5.67,0,11.33-.01,17,0,1.27-.53,2.32-1.55,3.07-.72.53-1.58.77-2.49.77h-11.92Zm-14.35-19.37c-.1.12-.06.23-.06.33v14.45c0,.44,0,.88.07,1.33.12.7.55,1.13,1.13,1.46.62.36,1.31.29,1.99.29h22.48c.26,0,.52.02.79,0,1.37-.05,2.4-1.03,2.4-2.28v-15.27c0-.1.05-.23-.05-.29-.12-.06-.22.05-.31.12-.59.46-1.17.93-1.77,1.38-.93.69-1.9,1.34-2.81,2.06-1.07.85-2.18,1.66-3.27,2.48-1.15.87-2.31,1.73-3.47,2.58-.78.57-1.59,1.04-2.57,1.11-1.19.08-2.15-.47-3.05-1.16-.58-.45-1.17-.88-1.75-1.32-.45-.34-.9-.69-1.36-1.01-.4-.28-.79-.59-1.17-.89-.61-.47-1.24-.91-1.86-1.37-.59-.44-1.17-.88-1.76-1.32-.57-.43-1.15-.85-1.73-1.28-.63-.47-1.25-.94-1.88-1.41h0Zm14.37-9.66h-9.55q-.62,0-.62.61v9.96c0,.31.11.51.37.67.4.25.81.51,1.16.83.43.38.91.67,1.35,1.04.54.45,1.16.81,1.71,1.24.65.5,1.31.99,1.97,1.47.41.3.79.66,1.22.94.55.35,1.01.85,1.66,1.05.8.25,1.51.11,2.17-.38.59-.44,1.18-.87,1.77-1.3.58-.43,1.15-.87,1.72-1.3.43-.33.86-.66,1.3-.98.56-.39,1.09-.82,1.66-1.19.52-.34.97-.76,1.49-1.1s.75-.72.74-1.4c-.04-3.24-.02-6.48,0-9.72,0-.35-.1-.44-.44-.44-3.22.01-6.44,0-9.67,0h0Zm11.63,6.1v3.74c.81-.6,1.57-1.18,2.37-1.77-.77-.64-1.55-1.29-2.37-1.97Zm-23.3,1.9v-1.49c0-.09.05-.21-.04-.25s-.21,0-.29.08c-.56.55-1.19,1.02-1.81,1.5-.16.12-.23.24,0,.39.25.17.48.37.72.56.38.3.8.53,1.16.85.13.12.28.13.27-.15-.02-.5,0-1,0-1.49h-.01Zm14.01-9.55c-1.49-1.64-2.95-1.91-4.74,0h4.74Z"/>
  </g>
  <path class="cls-2" d="m25.6,18.34c.53-.38.87-.95.87-1.59,0-1.14-1.05-2.06-2.35-2.06s-2.35.92-2.35,2.06c0,.57.26,1.08.69,1.46-1.22.48-2.07,1.55-2.07,2.8v3.03l.2.13c.1.06,1,.62,3.3.62,1.9,0,3.17-.55,3.22-.57l.28-.12v-3.08c0-1.15-.73-2.14-1.79-2.67h0Zm-1.48-2.77c.74,0,1.35.53,1.35,1.18s-.6,1.18-1.35,1.18-1.35-.53-1.35-1.18.6-1.18,1.35-1.18Zm2.27,7.96c-.43.14-1.33.38-2.5.38-1.39,0-2.17-.22-2.5-.35v-2.55c0-1.21,1.12-2.2,2.5-2.2s2.5.99,2.5,2.2v2.52Z"/>
</svg>