<?xml version="1.0" encoding="UTF-8"?>
<svg id="Layer_1" data-name="Layer 1" xmlns="http://www.w3.org/2000/svg" viewBox="0 0 24.95 31.5">
  <path d="m16.29,25.04v-4.94c-2.33-.57-10.49-3.09-13.24-10.85l-1.03-2.9,2.25,2.1c.06.06,5.84,5.38,12.02,5.02v-6.45l8.67,9.75-8.67,8.27ZM5.89,11.6c3.81,5.69,11.2,7.15,11.28,7.16l.61.12v2.66s5.08-4.85,5.08-4.85l-5.08-5.72v3.85l-.66.08c-4.45.56-8.64-1.56-11.24-3.3Z"/>
  <polygon points="18 25.84 18 30 1.5 30 1.5 1.5 18 1.5 18 5.84 19.5 5.84 19.5 0 0 0 0 31.5 19.5 31.5 19.5 25.84 18 25.84"/>
</svg>