<?xml version="1.0" encoding="UTF-8"?>
<svg id="Layer_1" data-name="Layer 1" xmlns="http://www.w3.org/2000/svg" viewBox="0 0 40 40">
  <defs>
    <style>
      .cls-1, .cls-2 {
        fill: #3c3c3c;
      }

      .cls-2 {
        opacity: 0;
      }
    </style>
  </defs>
  <rect class="cls-2" width="40" height="40"/>
  <path class="cls-1" d="m33.53,23.26v-14.57c0-1.56-1.18-2.83-2.63-2.83H4.66c-1.45,0-2.63,1.27-2.63,2.83v14.56c0,1.56,1.18,2.83,2.63,2.83h3.94v4.9l7.54-4.9h14.77c1.45,0,2.63-1.27,2.63-2.83h-.01Zm-17.85,1.33l-5.59,3.63v-3.63h-5.43c-.62,0-1.13-.6-1.13-1.33v-14.57c0-.74.51-1.33,1.13-1.33h26.24c.62,0,1.13.6,1.13,1.33v14.56c0,.74-.51,1.33-1.13,1.33h-15.22,0Z"/>
  <path class="cls-1" d="m10.78,12.86c-1.52,0-2.75,1.23-2.75,2.75s1.23,2.75,2.75,2.75,2.75-1.23,2.75-2.75-1.23-2.75-2.75-2.75Zm0,4c-.69,0-1.25-.56-1.25-1.25s.56-1.25,1.25-1.25,1.25.56,1.25,1.25-.56,1.25-1.25,1.25Z"/>
  <path class="cls-1" d="m17.78,12.86c-1.52,0-2.75,1.23-2.75,2.75s1.23,2.75,2.75,2.75,2.75-1.23,2.75-2.75-1.23-2.75-2.75-2.75Zm0,4c-.69,0-1.25-.56-1.25-1.25s.56-1.25,1.25-1.25,1.25.56,1.25,1.25-.56,1.25-1.25,1.25Z"/>
  <path class="cls-1" d="m24.78,12.86c-1.52,0-2.75,1.23-2.75,2.75s1.23,2.75,2.75,2.75,2.75-1.23,2.75-2.75-1.23-2.75-2.75-2.75Zm0,4c-.69,0-1.25-.56-1.25-1.25s.56-1.25,1.25-1.25,1.25.56,1.25,1.25-.56,1.25-1.25,1.25Z"/>
  <path class="cls-1" d="m35.65,18.86h-.87v1.5h.87c.21,0,.38.19.38.42v8.19c0,.23-.17.42-.38.42h-3.56v1.81l-2.98-1.81h-9.21c-.21,0-.38-.19-.38-.42v-1.36h-1.5v1.36c0,1.06.84,1.92,1.88,1.92h8.79l4.9,2.99v-2.99h2.06c1.04,0,1.88-.86,1.88-1.92v-8.19c0-1.06-.84-1.92-1.88-1.92Z"/>
</svg>