<?xml version="1.0" encoding="utf-8"?>
<!-- Generator: Adobe Illustrator 27.6.1, SVG Export Plug-In . SVG Version: 6.00 Build 0)  -->
<svg version="1.1" id="Layer_1" xmlns="http://www.w3.org/2000/svg" xmlns:xlink="http://www.w3.org/1999/xlink" x="0px" y="0px"
	 viewBox="0 0 40 40" style="enable-background:new 0 0 40 40;" xml:space="preserve">
<style type="text/css">
	.st0{fill:#3D3D3D;}
</style>
<g>
	<path class="st0" d="M20.01,31.26c-2.63,0-5.26,0.02-7.88-0.01c-1.46-0.01-2.71-1.28-2.72-2.74c-0.02-2.83-0.03-5.66,0-8.49
		c0.02-1.55,1.3-2.73,2.9-2.78c0.24-0.01,0.48-0.02,0.72,0c0.24,0.02,0.3-0.08,0.29-0.3c-0.01-1.07-0.01-2.14,0-3.21
		c0.02-3.17,2.51-6,5.64-6.48c3.66-0.56,6.99,1.83,7.68,5.43c0.07,0.34,0.11,0.69,0.11,1.05c-0.01,1.07,0,2.14-0.01,3.21
		c0,0.23,0.07,0.31,0.3,0.3c0.5-0.01,1-0.02,1.5,0.12c1.25,0.36,2.12,1.45,2.13,2.74c0.01,2.78,0.02,5.56,0,8.34
		c-0.01,1.53-1.23,2.8-2.77,2.82C25.26,31.29,22.63,31.27,20.01,31.26C20.01,31.27,20.01,31.27,20.01,31.26z M20.05,18.96
		c-2.54,0-5.08,0-7.61,0c-0.85,0-1.32,0.45-1.32,1.29c0,2.69,0,5.38,0,8.07c0,0.78,0.48,1.28,1.26,1.28c5.1,0,10.2,0,15.31,0
		c0.78,0,1.26-0.5,1.26-1.28c0-2.69,0-5.38,0-8.07c0-0.84-0.47-1.29-1.31-1.29C25.1,18.96,22.57,18.96,20.05,18.96z M20.04,17.25
		C20.04,17.25,20.04,17.24,20.04,17.25c1.56-0.01,3.11-0.01,4.67,0c0.23,0,0.33-0.03,0.32-0.3c-0.02-0.98,0-1.96,0-2.94
		c0-0.63-0.09-1.25-0.3-1.84c-0.7-1.95-2.77-3.5-5.29-3.25c-2.24,0.22-4.28,2.25-4.41,4.48c-0.07,1.15-0.01,2.31-0.03,3.46
		c-0.01,0.32,0.09,0.4,0.4,0.4C16.95,17.24,18.5,17.25,20.04,17.25z"/>
	<path class="st0" d="M31.19,6.31c0-0.8,0-1.54,0-2.28c0-0.55,0.31-0.9,0.78-0.91c0.54-0.02,0.89,0.3,0.89,0.88
		c0.01,1.41,0.01,2.82,0.01,4.22c0,0.38-0.18,0.66-0.53,0.8c-0.38,0.15-0.7,0.04-0.99-0.25c-1.96-1.91-4.25-3.26-6.88-4.01
		c-2.39-0.68-4.81-0.87-7.25-0.37C10.67,5.74,6.36,9.64,4.47,16.05c-1.15,3.89-0.67,7.71,1.11,11.37c0.12,0.24,0.28,0.48,0.23,0.78
		c-0.06,0.38-0.33,0.67-0.67,0.73c-0.42,0.07-0.74-0.09-0.95-0.5c-0.71-1.37-1.23-2.82-1.57-4.33c-0.38-1.69-0.5-3.41-0.37-5.12
		c0.24-3.16,1.23-6.07,3.02-8.69c2.51-3.67,5.93-6.09,10.21-7.25c2.4-0.65,4.84-0.75,7.3-0.37c3.06,0.48,5.8,1.69,8.25,3.58
		C31.06,6.25,31.09,6.26,31.19,6.31z"/>
	<path class="st0" d="M8.86,34.16c0,0.85,0.01,1.63,0,2.4c0,0.47-0.34,0.8-0.8,0.82C7.59,37.4,7.2,37.09,7.2,36.63
		c-0.02-1.48-0.01-2.97,0-4.45c0-0.35,0.21-0.59,0.53-0.71c0.33-0.13,0.64-0.07,0.9,0.19c0.98,0.95,2.04,1.79,3.21,2.48
		c1.96,1.15,4.06,1.88,6.32,2.11c5.31,0.55,9.85-1.1,13.57-4.92c2.21-2.26,3.57-4.99,4.16-8.11c0.68-3.59,0.15-7.01-1.47-10.27
		c-0.11-0.22-0.21-0.43-0.16-0.68c0.07-0.36,0.36-0.65,0.7-0.7c0.37-0.05,0.72,0.12,0.9,0.48c0.62,1.18,1.09,2.42,1.43,3.71
		c0.51,1.92,0.69,3.88,0.53,5.85c-0.22,2.87-1.08,5.55-2.62,7.99c-2.59,4.11-6.24,6.82-10.97,7.94c-5.09,1.22-9.85,0.33-14.22-2.56
		C9.65,34.75,9.3,34.48,8.86,34.16z"/>
	<path class="st0" d="M20.03,22.58c0.95,0,1.69,0.74,1.7,1.69c0.01,0.91-0.79,1.7-1.71,1.7c-0.92,0-1.7-0.79-1.7-1.71
		C18.32,23.32,19.08,22.58,20.03,22.58z"/>
	<path class="st0" d="M25.44,22.58c0.97,0,1.72,0.76,1.71,1.71c-0.01,0.91-0.77,1.67-1.69,1.68c-0.92,0.01-1.7-0.76-1.71-1.69
		C23.74,23.34,24.5,22.58,25.44,22.58z"/>
	<path class="st0" d="M14.6,22.58c0.94,0,1.69,0.76,1.69,1.7c0,0.91-0.79,1.69-1.72,1.69c-0.91,0-1.7-0.8-1.69-1.72
		C12.9,23.31,13.65,22.58,14.6,22.58z"/>
</g>
</svg>
