<?xml version="1.0" encoding="UTF-8"?>
<svg id="Layer_1" data-name="Layer 1" xmlns="http://www.w3.org/2000/svg" viewBox="0 0 32.26 39.5">
  <defs>
    <style>
      .cls-1 {
        fill: #3c3c3c;
      }
    </style>
  </defs>
  <path class="cls-1" d="m28.84,39.5H3.42c-1.89,0-3.42-1.53-3.42-3.42V3.42C0,1.53,1.53,0,3.42,0h25.42c1.88,0,3.42,1.53,3.42,3.42v32.66c0,1.88-1.53,3.42-3.42,3.42ZM3.42,1.5c-1.06,0-1.92.86-1.92,1.92v32.66c0,1.06.86,1.92,1.92,1.92h25.42c1.06,0,1.92-.86,1.92-1.92V3.42c0-1.06-.86-1.92-1.92-1.92H3.42Z"/>
  <g>
    <path class="cls-1" d="m10.71,11.76h-5.84v-5.84h5.84v5.84Zm-4.34-1.5h2.84v-2.84h-2.84v2.84Z"/>
    <path class="cls-1" d="m10.71,22.67h-5.84v-5.84h5.84v5.84Zm-4.34-1.5h2.84v-2.84h-2.84v2.84Z"/>
    <path class="cls-1" d="m10.71,33.58h-5.84v-5.84h5.84v5.84Zm-4.34-1.5h2.84v-2.84h-2.84v2.84Z"/>
    <rect class="cls-1" x="12.86" y="8.09" width="13.78" height="1.5"/>
    <rect class="cls-1" x="12.86" y="19" width="13.78" height="1.5"/>
    <rect class="cls-1" x="12.86" y="29.91" width="13.78" height="1.5"/>
  </g>
</svg>