<?xml version="1.0" encoding="UTF-8"?>
<svg id="Layer_2" data-name="Layer 2" xmlns="http://www.w3.org/2000/svg" viewBox="0 0 48 48.16">
  <defs>
    <style>
      .cls-1, .cls-2 {
        fill: #3c3c3c;
      }

      .cls-2 {
        opacity: 0;
      }
    </style>
  </defs>
  <path class="cls-2" d="m48,48.16H0V0h48v48.16Zm-45.99-2.02h43.98V2.02H2.01s0,44.12,0,44.12Z"/>
  <g id="ZAAfs4.tif">
    <g>
      <path class="cls-1" d="m25.34,35.22c-4.04,0-8.08-.05-12.12.02-2.21.04-3.57-1.73-3.48-3.51.01-.28,0-.57,0-.86.03-.46.4-.82.83-.82s.82.37.83.85c.01.41-.05.83,0,1.24.03.26.14.27.32.15.09-.06.2-.12.27-.21.45-.54,1.04-.9,1.55-1.37.95-.88,1.99-1.67,2.97-2.53.76-.67,1.54-1.32,2.31-1.98.48-.41.89-.91,1.47-1.21.22-.11.14-.2-.02-.33-1.04-.86-2.07-1.74-3.1-2.62-.85-.73-1.69-1.49-2.54-2.22-.96-.83-1.94-1.65-2.91-2.48-.17-.15-.26-.2-.31.1-.05.39-.02.77-.01,1.15.01.62-.28,1-.78,1.01-.55.02-.88-.32-.87-.97,0-.64-.06-1.27.13-1.91.42-1.38,1.87-2.36,3.18-2.36,8.24.02,16.48.02,24.72,0,.9,0,1.66.36,2.26.94.56.55.98,1.26.97,2.11v1.88c0,4.18,0,8.37,0,12.55,0,1.35-.6,2.34-1.7,3-.47.28-1.06.36-1.64.35-4.11,0-8.22,0-12.34,0v.03Zm-12.68-19.17c.51.36.84.72,1.22,1.05.69.58,1.38,1.15,2.04,1.77.61.57,1.27,1.1,1.9,1.64.51.44,1.05.85,1.55,1.3.5.45,1.05.84,1.53,1.32.41.42.9.75,1.35,1.14.91.77,1.8,1.55,2.71,2.31.31.26.62.21.92-.05.38-.33.77-.65,1.16-.98,1.03-.87,2.06-1.73,3.08-2.61.54-.47,1.04-.99,1.61-1.42.48-.36.92-.78,1.37-1.17.95-.83,1.93-1.63,2.87-2.47.68-.6,1.4-1.15,2.12-1.82H12.66Zm-.02,17.55h25.46c-.08-.1-.1-.14-.13-.16-1.24-1.05-2.51-2.07-3.72-3.16-.79-.7-1.61-1.36-2.39-2.08-.79-.73-1.69-1.35-2.43-2.13-.15-.16-.37-.18-.5-.05-.41.41-.87.76-1.29,1.15-.65.6-1.3,1.19-2.26,1.19-.89,0-1.5-.55-2.09-1.1-.43-.4-.92-.73-1.3-1.19-.18-.22-.44-.19-.63.03-.86.94-1.92,1.65-2.84,2.52-.46.43-1,.82-1.48,1.25-.78.69-1.59,1.33-2.36,2.03-.64.58-1.31,1.12-2.01,1.71h-.03Zm26.73-16.51c-.97.85-1.84,1.64-2.74,2.38-.41.33-.75.74-1.19,1.02-.49.32-.88.75-1.32,1.11-.62.51-1.23,1.04-1.83,1.58-.56.5-1.14.98-1.71,1.47-.1.09-.3.21-.09.32.41.22.66.62,1.03.88.86.6,1.6,1.33,2.39,2,1.16.97,2.31,1.95,3.44,2.96.45.4.98.71,1.36,1.2.16.2.39.36.67.4v-15.32h0Z"/>
      <path class="cls-1" d="m9.37,27.68c-1.14,0-2.28-.01-3.43,0-.82.01-1.1-.65-.83-1.27.18-.42.57-.43.94-.43h5.82c.31,0,.63-.01.94,0,.53.02.95.43.94.86-.01.44-.45.83-.97.83h-3.43.02Z"/>
      <path class="cls-1" d="m10.59,22.03h2.31c.56,0,1,.51.84.98-.14.39-.47.62-.89.62-1.54.01-3.08.01-4.62,0-.48,0-.84-.39-.83-.8,0-.42.4-.79.88-.8h2.31Z"/>
    </g>
  </g>
</svg>