<?xml version="1.0" encoding="UTF-8"?>
<svg id="Layer_1" data-name="Layer 1" xmlns="http://www.w3.org/2000/svg" viewBox="0 0 40 40">
  <defs>
    <style>
      .cls-1, .cls-2 {
        fill: #3c3c3c;
      }

      .cls-2 {
        opacity: 0;
      }
    </style>
  </defs>
  <rect class="cls-2" width="40" height="40"/>
  <path class="cls-1" d="m36.38,25.87c-.46-.73-1.26-1.16-2.12-1.16h-17.64c-.88,0-1.7.46-2.16,1.23l-4.84,8.08,1.54.92,4.84-8.08c.13-.21.37-.36.63-.36h17.64c.36,0,.55.24.62.33.06.1.2.37.05.7l-3.81,8.26c-.12.26-.38.43-.67.43H6.51c-.41,0-.73-.33-.73-.73V15.99c0-.41.33-.73.73-.73h1.55v-1.79h-1.55c-1.39,0-2.51,1.13-2.51,2.51v19.5c0,1.39,1.13,2.51,2.51,2.51h23.92c.98,0,1.88-.57,2.29-1.47l3.81-8.26c.36-.79.3-1.69-.17-2.42h.01Z"/>
  <path class="cls-1" d="m11.63,5.56c0-.36.29-.64.64-.64h12.44l3.75,3.75v14.26h1.79V7.93l-4.8-4.8h-13.17c-1.35,0-2.43,1.1-2.43,2.43v22.69h1.79V5.56h-.01Z"/>
  <path class="cls-1" d="m17.38,8.34h-3.98v3.98h3.98v-3.98Zm-1.32,2.66h-1.32v-1.32h1.32v1.32Z"/>
  <path class="cls-1" d="m17.38,13.65h-3.98v3.98h3.98v-3.98Zm-1.32,2.66h-1.32v-1.32h1.32v1.32Z"/>
  <path class="cls-1" d="m13.39,22.94h3.98v-3.98h-3.98v3.98Zm1.32-2.66h1.32v1.32h-1.32v-1.32Z"/>
  <rect class="cls-1" x="18.71" y="9.66" width="7.96" height="1.32"/>
  <rect class="cls-1" x="18.71" y="14.98" width="7.96" height="1.32"/>
  <rect class="cls-1" x="18.71" y="20.29" width="7.96" height="1.32"/>
</svg>