<?xml version="1.0" encoding="UTF-8"?>
<svg id="Layer_2" data-name="Layer 2" xmlns="http://www.w3.org/2000/svg" viewBox="0 0 48 48.16">
  <defs>
    <style>
      .cls-1 {
        fill: #fff;
      }

      .cls-2, .cls-3 {
        fill: #3c3c3c;
      }

      .cls-4 {
        fill: none;
        stroke: #3c3c3c;
        stroke-linecap: round;
        stroke-linejoin: round;
        stroke-width: 2px;
      }

      .cls-3 {
        opacity: 0;
      }
    </style>
  </defs>
  <path class="cls-3" d="m48,48.16H0V0h48v48.16Zm-45.99-2.02h43.98V2.02H2.01s0,44.12,0,44.12Z"/>
  <path class="cls-2" d="m39.6,41.79H8.4c-1.39,0-2.53-1.12-2.53-2.51V11.89c0-1.39,1.13-2.51,2.53-2.51h31.2c1.39,0,2.53,1.12,2.53,2.51v27.39c0,1.39-1.13,2.51-2.53,2.51ZM8.4,10.75c-.63,0-1.15.52-1.15,1.14v27.39c0,.63.52,1.14,1.15,1.14h31.2c.63,0,1.15-.52,1.15-1.14V11.89c0-.63-.52-1.14-1.15-1.14H8.4Z"/>
  <g>
    <path class="cls-2" d="m16.54,14.63c-.5,0-.91-.41-.91-.91v-6.34c0-.5.41-.91.91-.91s.91.41.91.91v6.34c0,.5-.41.91-.91.91Z"/>
    <path class="cls-1" d="m16.54,14.74c-.56,0-1.01-.45-1.01-1.01v-6.35c0-.56.45-1.01,1.01-1.01s1.01.45,1.01,1.01v6.34c0,.56-.45,1.01-1.01,1.01h0Zm0-8.15c-.43,0-.8.35-.8.8v6.34c0,.43.35.8.8.8s.8-.35.8-.8v-6.35c0-.43-.35-.8-.8-.8h0Z"/>
  </g>
  <g>
    <path class="cls-2" d="m31.03,14.63c-.5,0-.91-.41-.91-.91v-6.34c0-.5.41-.91.91-.91s.91.41.91.91v6.34c0,.5-.41.91-.91.91Z"/>
    <path class="cls-1" d="m31.03,14.74c-.56,0-1.01-.45-1.01-1.01v-6.35c0-.56.45-1.01,1.01-1.01s1.01.45,1.01,1.01v6.34c0,.56-.45,1.01-1.01,1.01h0Zm0-8.15c-.43,0-.8.35-.8.8v6.34c0,.43.35.8.8.8s.8-.35.8-.8v-6.35c0-.43-.35-.8-.8-.8h0Z"/>
  </g>
  <path class="cls-4" d="m26.73,19.15l6.66,5.52-6.91,6.91v-3.27s-8.58-2.66-12.77,4.05c0,0,3.97-9.59,13.02-9.59,0,0,0-3.62,0-3.62Z"/>
</svg>