<?xml version="1.0" encoding="UTF-8"?>
<svg id="Layer_1" data-name="Layer 1" xmlns="http://www.w3.org/2000/svg" viewBox="0 0 40 40">
  <defs>
    <style>
      .cls-1, .cls-2 {
        fill: #3c3c3c;
      }

      .cls-2 {
        opacity: 0;
      }
    </style>
  </defs>
  <rect class="cls-2" width="40" height="40"/>
  <g>
    <path class="cls-1" d="m35.86,21.44c-.01-.47-.22-.86-.59-1.13-.25-.18-.57-.27-.88-.27-.03-.13-.09-.25-.19-.38,0,0,.01-.02.06-.07.54-.54.56-1.38.05-1.94-.21-.23-.43-.46-.66-.66-.34-.31-.77-.42-1.23-.33-.27.06-.53.18-.75.41-.13-.06-.26-.11-.4-.16,0-.51-.21-.93-.62-1.22-.14-.09-.27-.15-.39-.18l-.11-.05-1.26-.02h-.1c-.19.08-.45.17-.65.35-.33.3-.49.67-.49,1.12-.15.05-.27.1-.4.16-.24-.23-.49-.37-.78-.42-.47-.08-.88.03-1.2.32-.24.22-.47.45-.7.69-.5.56-.48,1.41.06,1.93.05.05.07.08.05.06-.08.13-.13.25-.17.39-.24,0-.42.03-.59.11-.41.18-.69.49-.81.94l-.06.05v1.46l.06.02c.09.32.27.58.55.79.25.18.57.26.87.26.03.09.07.18.13.32,0,.02.02.05.05.07-.02.02-.05.03-.06.06-.51.55-.53,1.38-.03,1.94.21.23.42.45.64.65.35.33.81.45,1.29.34.32-.07.56-.25.72-.41.11.05.22.09.33.14.02,0,.05.02.07.02v.07c.01.77.64,1.39,1.41,1.41h.82c.47-.01.86-.22,1.13-.61.18-.25.26-.54.26-.87.11-.05.23-.09.34-.14.02,0,.03-.01.06-.02l.05.05c.55.53,1.42.54,1.98.02.21-.19.41-.4.62-.62.34-.37.46-.82.34-1.31-.06-.25-.19-.49-.41-.71.02-.06.05-.1.07-.16l.07-.15s.02-.06.03-.09h.09c.75-.02,1.38-.65,1.38-1.42v-.81h0Zm-1.33.79c0,.09-.06.1-.11.1h-.49c-.34,0-.59.18-.69.51s-.23.66-.42,1.01c-.16.29-.13.57.1.82l.35.35c.06.07.06.11,0,.17l-.53.53c-.06.06-.1.06-.16,0l-.21-.21-.13-.14c-.25-.25-.55-.29-.85-.11s-.63.31-.96.4c-.37.1-.54.33-.54.72v.46c0,.07-.05.1-.1.1h-.75c-.07,0-.1-.05-.1-.11v-.5c0-.33-.18-.57-.49-.66-.35-.1-.7-.24-1.04-.43-.11-.06-.23-.09-.33-.09-.17,0-.33.07-.47.21l-.34.34c-.07.07-.11.07-.18,0l-.5-.5c-.07-.07-.07-.11,0-.17l.33-.33c.25-.25.29-.54.11-.85s-.31-.64-.41-.98c-.09-.33-.34-.51-.69-.51h-.48s-.11-.01-.11-.11v-.74s0-.11.13-.11h.49c.33,0,.58-.19.66-.5.09-.34.23-.67.42-1.02.16-.29.11-.57-.11-.82-.07-.07-.13-.13-.19-.19l-.15-.15c-.08-.08-.08-.11,0-.19.16-.17.33-.33.49-.49.07-.07.11-.07.18,0l.33.33c.26.25.55.3.86.11.3-.17.63-.31.98-.41.32-.09.5-.34.51-.66v-.49c0-.08.05-.11.11-.13h.73c.08,0,.11.03.11.11v.48c0,.35.18.59.53.69s.67.23.97.4c.32.18.61.14.87-.13l.33-.33c.06-.06.11-.06.17,0,.17.17.35.34.53.51.06.06.06.1,0,.16-.07.07-.14.14-.21.21l-.14.14c-.25.26-.29.55-.11.86.17.29.3.61.39.94.1.38.34.55.73.55h.46s.1.02.1.1v.79Zm-1.37,2.23h0Zm-7.41-.47h0Z"/>
    <path class="cls-1" d="m29.43,18.89h-.01c-.79,0-1.52.31-2.08.86-.56.56-.87,1.3-.88,2.09,0,.8.31,1.54.87,2.1s1.3.87,2.1.87c1.62,0,2.96-1.33,2.97-2.95,0-.8-.3-1.54-.86-2.1s-1.3-.87-2.1-.88h-.01Zm1.14,4.14c-.31.31-.72.43-1.15.47h0c-.89,0-1.63-.73-1.63-1.62,0-.45.17-.86.48-1.17s.72-.48,1.15-.48h0c.91,0,1.63.72,1.63,1.65,0,.42-.17.85-.49,1.15h.01Z"/>
    <path class="cls-1" d="m10.71,9.71c1.26,0,2.29-1.03,2.29-2.29s-1.03-2.29-2.29-2.29-2.29,1.03-2.29,2.29,1.03,2.29,2.29,2.29Zm0-3.43c.63,0,1.14.51,1.14,1.14s-.51,1.14-1.14,1.14-1.14-.51-1.14-1.14.51-1.14,1.14-1.14Z"/>
    <path class="cls-1" d="m17.57,9.71c1.26,0,2.29-1.03,2.29-2.29s-1.03-2.29-2.29-2.29-2.29,1.03-2.29,2.29,1.03,2.29,2.29,2.29Zm0-3.43c.63,0,1.14.51,1.14,1.14s-.51,1.14-1.14,1.14-1.14-.51-1.14-1.14.51-1.14,1.14-1.14Z"/>
    <path class="cls-1" d="m24.43,9.71c1.26,0,2.29-1.03,2.29-2.29s-1.03-2.29-2.29-2.29-2.29,1.03-2.29,2.29,1.03,2.29,2.29,2.29Zm0-3.43c.63,0,1.14.51,1.14,1.14s-.51,1.14-1.14,1.14-1.14-.51-1.14-1.14.51-1.14,1.14-1.14Z"/>
    <circle class="cls-1" cx="10.71" cy="20" r="2.29"/>
    <circle class="cls-1" cx="17.57" cy="20" r="2.29"/>
    <path class="cls-1" d="m32.14,2H4.14v10.86h28V2Zm-1.71,9.14H5.86V3.71h24.57v7.43Z"/>
    <path class="cls-1" d="m22.25,24.32c-.26-.85-.39-1.71-.39-2.61,0-2.09.75-4.13,2.11-5.73l1.2-1.42H4.14v10.86h18.45s-.34-1.11-.34-1.11Zm-1.92-.61H5.86v-7.43h15.79c-.98,1.63-1.51,3.51-1.51,5.43,0,.67.07,1.34.19,2h-.01Z"/>
    <polygon class="cls-1" points="30.43 36.29 5.86 36.29 5.86 28.86 22.14 28.86 22.14 27.14 4.14 27.14 4.14 38 32.14 38 32.14 30.29 30.43 30.29 30.43 36.29"/>
  </g>
</svg>