<?xml version="1.0" encoding="UTF-8"?>
<svg id="Layer_2" data-name="Layer 2" xmlns="http://www.w3.org/2000/svg" viewBox="0 0 48 48.16">
  <defs>
    <style>
      .cls-1, .cls-2 {
        fill: none;
      }

      .cls-3 {
        fill: rgba(60, 60, 60, 0);
      }

      .cls-2 {
        stroke: #444;
        stroke-linecap: round;
        stroke-miterlimit: 10;
        stroke-width: 1.5px;
      }

      .cls-4 {
        fill: #444;
      }
    </style>
  </defs>
  <path class="cls-3" d="m48,48.16H0V0h48v48.16Zm-45.99-2.02h43.98V2.02H2.01s0,44.12,0,44.12Z"/>
  <g>
    <path class="cls-4" d="m35.64,25.73c.93-.76,1.53-1.89,1.53-3.18,0-2.27-1.85-4.12-4.12-4.12s-4.12,1.85-4.12,4.12c0,1.14.46,2.16,1.21,2.91-2.14.96-3.64,3.1-3.64,5.6v6.06l.35.26c.17.13,1.76,1.23,5.79,1.23,3.33,0,5.57-1.1,5.66-1.15l.48-.24v-6.16c0-2.3-1.28-4.28-3.15-5.33Zm-2.59-5.54c1.3,0,2.36,1.06,2.36,2.36s-1.06,2.36-2.36,2.36-2.36-1.06-2.36-2.36,1.06-2.36,2.36-2.36Zm3.98,15.91c-.76.28-2.34.76-4.39.76-2.44,0-3.8-.44-4.39-.7v-5.09c0-2.42,1.97-4.39,4.39-4.39s4.39,1.97,4.39,4.39v5.03Z"/>
    <path class="cls-4" d="m16.91,25.73c.93-.76,1.53-1.89,1.53-3.18,0-2.27-1.85-4.12-4.12-4.12s-4.12,1.85-4.12,4.12c0,1.14.46,2.16,1.21,2.91-2.14.96-3.64,3.1-3.64,5.6v6.06l.35.26c.17.13,1.76,1.23,5.79,1.23,3.33,0,5.57-1.1,5.66-1.15l.48-.24v-6.16c0-2.3-1.28-4.28-3.15-5.33Zm-2.59-5.54c1.3,0,2.36,1.06,2.36,2.36s-1.06,2.36-2.36,2.36-2.36-1.06-2.36-2.36,1.06-2.36,2.36-2.36Zm3.98,15.91c-.76.28-2.34.76-4.39.76-2.44,0-3.8-.44-4.39-.7v-5.09c0-2.42,1.97-4.39,4.39-4.39s4.39,1.97,4.39,4.39v5.03Z"/>
  </g>
  <g>
    <path class="cls-1" d="m23.83,9.39c-2.1,0-3.8,1.71-3.8,3.8s1.71,3.8,3.8,3.8,3.8-1.71,3.8-3.8-1.71-3.8-3.8-3.8Z"/>
    <path class="cls-4" d="m29.39,13.2c0-3.07-2.49-5.56-5.56-5.56s-5.56,2.49-5.56,5.56c0,1.75.83,3.3,2.1,4.32-.57.21-1.1.49-1.61.81.52.35,1.02.74,1.5,1.14.9-.45,1.91-.7,2.98-.7,1.83,0,3.48.74,4.7,1.93.13-.62.37-1.19.68-1.73-.53-.44-1.11-.82-1.73-1.12,1.51-1,2.5-2.7,2.5-4.64Zm-5.56,3.8c-2.1,0-3.8-1.71-3.8-3.8s1.71-3.8,3.8-3.8,3.8,1.71,3.8,3.8-1.71,3.8-3.8,3.8Z"/>
  </g>
  <polyline class="cls-2" points="32.64 14.16 34.97 16.49 39.45 11.47"/>
</svg>