<?xml version="1.0" encoding="UTF-8"?>
<svg id="Layer_1" data-name="Layer 1" xmlns="http://www.w3.org/2000/svg" viewBox="0 0 32 32">
  <defs>
    <style>
      .cls-1, .cls-2 {
        fill: #3c3c3c;
      }

      .cls-2 {
        opacity: 0;
      }
    </style>
  </defs>
  <rect class="cls-2" width="32" height="32"/>
  <g>
    <path class="cls-1" d="m23.71,18.15c.81-.66,1.33-1.65,1.33-2.77,0-1.98-1.61-3.59-3.59-3.59s-3.59,1.61-3.59,3.59c0,.99.4,1.89,1.05,2.54-1.86.84-3.17,2.7-3.17,4.88v5.28l.31.23c.15.11,1.53,1.07,5.05,1.07,2.9,0,4.85-.96,4.93-1l.42-.21v-5.37c0-2-1.12-3.73-2.74-4.65Zm-2.26-4.83c1.14,0,2.06.92,2.06,2.06s-.92,2.06-2.06,2.06-2.06-.92-2.06-2.06.92-2.06,2.06-2.06Zm3.47,13.86c-.66.24-2.04.66-3.82.66-2.12,0-3.31-.39-3.82-.61v-4.44c0-2.11,1.72-3.82,3.82-3.82s3.82,1.72,3.82,3.82v4.39Z"/>
    <path class="cls-1" d="m7.08,24.8v-6.63c0-3.23,2.63-5.86,5.86-5.86,1.59,0,3.04.64,4.09,1.68.11-.54.33-1.04.59-1.51-.46-.38-.96-.72-1.51-.98,1.31-.87,2.18-2.35,2.18-4.04,0-2.67-2.17-4.84-4.84-4.84s-4.84,2.17-4.84,4.84c0,1.53.72,2.87,1.83,3.76-2.85,1.03-4.89,3.75-4.89,6.95v7.45l.31.23c.08.06,2.03,1.48,7.09,1.48.53,0,1.04-.02,1.53-.06v-1.54c-.49.04-.99.08-1.53.08-3.41,0-5.2-.68-5.86-1Zm3.06-17.33c0-1.83,1.49-3.31,3.31-3.31s3.31,1.49,3.31,3.31-1.49,3.31-3.31,3.31-3.31-1.49-3.31-3.31Z"/>
  </g>
</svg>