<?xml version="1.0" encoding="utf-8"?>
<!-- Generator: Adobe Illustrator 27.6.1, SVG Export Plug-In . SVG Version: 6.00 Build 0)  -->
<svg version="1.1" id="Layer_1" xmlns="http://www.w3.org/2000/svg" xmlns:xlink="http://www.w3.org/1999/xlink" x="0px" y="0px"
	 viewBox="0 0 32 32" style="enable-background:new 0 0 32 32;" xml:space="preserve">
<style type="text/css">
	.st0{fill:#3C3C3C;}
</style>
<g>
	<rect x="9.15" y="5.38" class="st0" width="17.6" height="1.62"/>
	<rect x="9.15" y="9.38" class="st0" width="17.6" height="1.62"/>
	<rect x="9.15" y="13.38" class="st0" width="17.6" height="1.62"/>
	<rect x="9.15" y="17.38" class="st0" width="17.6" height="1.62"/>
	<rect x="9.15" y="21.38" class="st0" width="17.6" height="1.62"/>
	<rect x="9.15" y="25.38" class="st0" width="17.6" height="1.62"/>
	<rect x="5.15" y="5.38" class="st0" width="1.85" height="1.62"/>
	<rect x="5.15" y="9.38" class="st0" width="1.85" height="1.62"/>
	<rect x="5.15" y="13.38" class="st0" width="1.85" height="1.62"/>
	<rect x="5.15" y="17.38" class="st0" width="1.85" height="1.62"/>
	<rect x="5.15" y="21.38" class="st0" width="1.85" height="1.62"/>
	<rect x="5.15" y="25.38" class="st0" width="1.85" height="1.62"/>
	<path class="st0" d="M28.32,0.08H3.58c-2.03,0-3.68,1.65-3.68,3.68V28.5c0,2.03,1.65,3.68,3.68,3.68h24.74
		c2.03,0,3.68-1.65,3.68-3.68V3.76C32,1.73,30.35,0.08,28.32,0.08z M30,28.5c0,0.93-0.75,1.68-1.68,1.68H3.58
		c-0.93,0-1.68-0.75-1.68-1.68V3.76c0-0.93,0.75-1.68,1.68-1.68h24.74c0.93,0,1.68,0.75,1.68,1.68V28.5z"/>
</g>
</svg>
